<svg width="26" height="26" viewBox="0 0 26 26" fill="none" xmlns="http://www.w3.org/2000/svg">
<path d="M20.4523 15.105L16.4519 13.105C16.2945 13.0265 16.1191 12.991 15.9435 13.002C15.7679 13.0129 15.5983 13.07 15.4518 13.1675L13.6154 14.3925C12.7724 13.9291 12.0786 13.2354 11.6152 12.3925L12.8403 10.5562C12.9378 10.4098 12.9949 10.2402 13.0059 10.0646C13.0168 9.88907 12.9813 9.7137 12.9028 9.55625L10.9026 5.55625C10.8197 5.38884 10.6916 5.248 10.5327 5.14968C10.3739 5.05137 10.1906 4.99952 10.0038 5C8.67759 5 7.4057 5.52678 6.46792 6.46447C5.53015 7.40215 5.00332 8.67392 5.00332 10C5.00663 12.9164 6.16672 15.7123 8.22911 17.7745C10.2915 19.8367 13.0877 20.9967 16.0044 21C16.661 21 17.3113 20.8707 17.918 20.6194C18.5247 20.3681 19.0759 19.9998 19.5402 19.5355C20.0046 19.0712 20.3729 18.52 20.6242 17.9134C20.8755 17.3068 21.0049 16.6566 21.0049 16C21.005 15.8142 20.9534 15.6321 20.8558 15.474C20.7582 15.3159 20.6185 15.1881 20.4523 15.105ZM16.0044 19C13.618 18.9974 11.3301 18.0483 9.64272 16.361C7.95531 14.6738 7.00616 12.3861 7.00351 10C7.00332 9.3064 7.24349 8.63416 7.68315 8.09768C8.12282 7.5612 8.73481 7.19362 9.41499 7.0575L10.8501 9.9325L9.62876 11.75C9.53749 11.8869 9.48141 12.0442 9.46549 12.2079C9.44958 12.3717 9.47431 12.5368 9.5375 12.6888C10.2531 14.3892 11.606 15.742 13.3066 16.4575C13.459 16.5235 13.6254 16.5505 13.7908 16.5361C13.9563 16.5217 14.1155 16.4663 14.2542 16.375L16.0806 15.1575L18.9559 16.5925C18.8187 17.2734 18.4495 17.8856 17.9112 18.3247C17.373 18.7637 16.699 19.0024 16.0044 19ZM13.0041 3.09594e-07C10.7595 -0.000489452 8.55293 0.58011 6.59929 1.68529C4.64564 2.79046 3.01144 4.38256 1.85573 6.30662C0.700026 8.23069 0.0621955 10.4212 0.00432285 12.6648C-0.0535498 14.9085 0.470507 17.1289 1.52548 19.11L0.106598 23.3662C-0.0109327 23.7186 -0.0279892 24.0968 0.0573403 24.4583C0.14267 24.8199 0.327013 25.1505 0.589708 25.4132C0.852404 25.6759 1.18307 25.8602 1.54464 25.9455C1.90622 26.0308 2.28441 26.0138 2.63684 25.8962L6.8935 24.4775C8.63713 25.4048 10.5691 25.9228 12.5428 25.992C14.5165 26.0613 16.4801 25.68 18.2844 24.8772C20.0888 24.0743 21.6865 22.871 22.9563 21.3586C24.2261 19.8462 25.1347 18.0644 25.613 16.1484C26.0913 14.2325 26.1267 12.2328 25.7167 10.301C25.3067 8.36934 24.462 6.55642 23.2466 4.9999C22.0313 3.44337 20.4772 2.18415 18.7025 1.31782C16.9278 0.451486 14.979 0.000810288 13.0041 3.09594e-07ZM13.0041 24C11.0701 24.0013 9.17009 23.4921 7.49606 22.5238C7.37349 22.4527 7.23722 22.4085 7.09627 22.394C6.95532 22.3796 6.81291 22.3953 6.67848 22.44L2.00303 24L3.56193 19.325C3.60687 19.1907 3.62275 19.0483 3.60852 18.9074C3.5943 18.7665 3.55029 18.6301 3.47942 18.5075C2.26677 16.4111 1.77989 13.9732 2.09432 11.572C2.40876 9.17068 3.50692 6.94027 5.21845 5.22674C6.92998 3.51321 9.15921 2.41234 11.5603 2.0949C13.9614 1.77747 16.4002 2.26122 18.4983 3.47111C20.5964 4.68099 22.2365 6.54939 23.1643 8.78644C24.092 11.0235 24.2555 13.5042 23.6294 15.8436C23.0033 18.1831 21.6226 20.2505 19.7014 21.7253C17.7803 23.2 15.4261 23.9996 13.0041 24Z" fill="#414141"/>
</svg>
