<svg width="110" height="118" viewBox="0 0 110 118" fill="none" xmlns="http://www.w3.org/2000/svg">
<mask id="mask0_193_21743" style="mask-type:luminance" maskUnits="userSpaceOnUse" x="35" y="0" width="73" height="118">
<path d="M35.3646 0H107.071V118H35.3646V0Z" fill="white"/>
</mask>
<g mask="url(#mask0_193_21743)">
<path d="M64.2859 14.8425C75.4439 8.13577 82.622 15.2423 103.13 6.27114C103.079 13.1181 101.728 30.0519 90.0656 37.3553C76.9535 45.5687 66.5205 44.2142 60.7953 40.0404C68.6119 31.9434 78.4004 25.3441 89.8389 20.9764L88.4217 17.2501C76.6283 21.7521 66.2818 28.6139 57.9402 37.2837C52.4239 30.1355 56.4604 19.5503 64.2859 14.8425ZM58.1043 42.985C67.8988 50.4883 81.5121 47.4124 92.1749 40.7385C100.594 35.4638 108.551 22.7396 106.797 0C82.1267 12.9152 76.0256 3.13855 62.2423 11.4235C51.9972 17.5813 47.6922 31.2334 55.2253 40.2552C36.9877 61.2256 30.5524 90.6809 40.6513 118.021L44.3806 116.64C34.7441 90.5496 40.8303 62.8516 58.1043 42.985Z" fill="#93C5FD"/>
</g>
<mask id="mask1_193_21743" style="mask-type:luminance" maskUnits="userSpaceOnUse" x="45" y="56" width="65" height="41">
<path d="M45.2548 56.0971H109.312V96.3165H45.2548V56.0971Z" fill="white"/>
</mask>
<g mask="url(#mask1_193_21743)">
<path d="M80.0084 91.1373C58.9843 94.9948 48.5781 83.7265 49.7983 74.3078C55.0163 76.6916 65.1122 80.9101 71.2252 80.9101C81.524 80.9101 89.6776 76.8825 90.0177 76.7095L88.2426 73.1443C88.165 73.1831 80.5484 76.9213 71.2252 76.9213C65.7059 76.9213 55.7144 72.6431 50.929 70.4413C53.5276 64.8444 59.9718 60.3902 67.9106 60.3902C78.5525 60.3902 83.3259 67.7562 103.595 67.073C101.021 73.4247 93.5113 88.667 80.0084 91.1373ZM63.6921 56.7534C50.7679 58.8806 41.3612 71.9002 47.8024 83.8547C53.7364 94.8486 67.7674 97.4352 80.7214 95.0605C90.4712 93.2764 102.545 84.4425 109.314 62.5979C81.6314 65.5127 79.6146 54.134 63.6921 56.7534Z" fill="#93C5FD"/>
</g>
<path d="M32.9151 63.8629C29.9764 61.157 24.0931 55.1663 21.3424 48.2746C18.2814 40.6042 19.4629 31.4332 19.4778 31.3407L15.5337 30.8067C15.477 31.2214 14.1852 41.0905 17.646 49.7544C20.4742 56.84 26.0532 62.8635 29.4185 66.0617C26.7454 67.1775 23.4905 67.5087 19.7761 66.9776C10.4112 65.6351 4.81132 56.8668 4.01176 42.2839C3.25397 28.5572 16.2915 17.6767 21.8496 13.6819C26.3158 35.5295 36.2714 37.4687 37.2231 50.4316C37.5841 55.3751 36.522 60.5275 32.9151 63.8629ZM41.1911 50.1392C40.0186 34.0885 28.5145 34.6464 24.8539 7.06769C5.408 18.6642 -0.517063 32.4625 0.0348697 42.5047C0.906027 58.281 7.55606 71.2171 23.2011 71.2171C35.4778 71.2171 42.0742 62.1535 41.1911 50.1392Z" fill="#93C5FD"/>
</svg>
