<svg width="99" height="102" viewBox="0 0 99 102" fill="none" xmlns="http://www.w3.org/2000/svg">
<path d="M54.8005 32.5357C53.1719 34.4474 51.4124 35.3178 50.4699 35.3178C47.6318 35.3178 43.4186 31.2168 43.4186 25.5512C43.4186 18.6601 44.3985 15.7819 50.4699 15.7819C57.5239 15.7819 57.5239 19.2501 57.5239 25.5512C57.5239 28.8485 55.8178 31.3423 54.8005 32.5357ZM50.4699 13.0773C40.714 13.0773 40.714 20.5824 40.714 25.5512C40.714 32.5758 45.9604 38.0251 50.4699 38.0251C54.3226 38.0251 60.2285 32.4369 60.2285 25.5512C60.2285 19.4184 60.2285 13.0773 50.4699 13.0773Z" fill="#93C5FD"/>
<path d="M41.8567 64.1184C41.9208 64.1264 41.9849 64.1318 42.0463 64.1318C42.7111 64.1318 43.2878 63.6432 43.3839 62.9677C44.0621 58.1805 43.4907 54.4212 43.4667 54.2637C43.3519 53.5268 42.6604 53.0222 41.9235 53.137C41.1866 53.2491 40.6793 53.9407 40.7941 54.6802C40.7994 54.7149 41.3254 58.2206 40.706 62.5886C40.6019 63.3281 41.1172 64.0116 41.8567 64.1184Z" fill="#93C5FD"/>
<mask id="mask0_193_21693" style="mask-type:luminance" maskUnits="userSpaceOnUse" x="0" y="0" width="99" height="102">
<path d="M0.00012207 0H98.4244V101.5H0.00012207V0Z" fill="white"/>
</mask>
<g mask="url(#mask0_193_21693)">
<path d="M82.9415 85.0853C92.8042 75.7966 98.427 62.8341 98.427 49.2389C98.427 22.0937 76.3494 0.0107117 49.2149 0.0107117C22.0778 0.0107117 0.00012207 22.0937 0.00012207 49.2389C0.00012207 62.9943 5.73513 76.0583 15.7927 85.3683C13.3204 87.0023 11.5342 88.8606 11.091 91.2422C10.2687 95.6529 12.2257 98.1012 14.0119 99.3828C15.9957 100.803 18.8231 101.489 22.1231 101.489C27.6392 101.489 34.4769 99.5697 40.9114 95.9519C42.7483 94.916 44.7027 93.549 46.7719 92.0992C53.8205 87.1679 59.0322 83.9346 61.9051 87.264C62.3937 87.83 63.2481 87.8941 63.8141 87.4055C64.3801 86.9169 64.4415 86.0625 63.9529 85.4965C61.8196 83.0241 58.7546 82.5569 54.8458 84.1001C51.73 85.3309 48.4219 87.6458 45.2234 89.8832C43.2076 91.2929 41.3066 92.6252 39.5845 93.5917C29.0303 99.5296 19.3438 99.8714 15.5845 97.1828C13.9158 95.9866 13.299 94.1551 13.7476 91.7361C14.3323 88.5936 19.3865 86.2467 24.737 83.7637C30.0502 81.2967 35.5422 78.7469 38.6901 74.7073C39.2401 74.0024 39.7554 73.2415 40.2173 72.4512C40.5964 71.8078 40.3801 70.9774 39.7367 70.601C39.0932 70.2218 38.2629 70.4381 37.8864 71.0842C37.4806 71.7704 37.0347 72.4299 36.5568 73.0439C33.8121 76.5682 28.6191 78.9792 23.597 81.31C21.7307 82.1778 19.8938 83.0295 18.2251 83.9292C8.35166 75.0971 2.70476 62.5084 2.70476 49.2389C2.70476 23.5862 23.5676 2.71535 49.2149 2.71535C74.8596 2.71535 95.7224 23.5862 95.7224 49.2389C95.7224 62.3295 90.2063 74.8008 80.5519 83.6115C79.0887 82.7892 77.4975 82.0042 75.8768 81.2059C71.2712 78.9338 66.5054 76.5816 63.9903 73.1534C63.5257 72.5206 63.0932 71.8371 62.7061 71.1216C62.351 70.4648 61.5286 70.2218 60.8718 70.5796C60.215 70.9347 59.9721 71.757 60.3298 72.4138C60.7757 73.2362 61.2723 74.0238 61.809 74.7527C64.7165 78.7149 69.7814 81.2139 74.6834 83.6329C79.5854 86.0492 84.2177 88.3346 84.7543 91.3997C85.032 92.9776 84.4339 94.2512 82.9228 95.2924C80.0472 97.2735 74.3229 98.1253 67.6107 97.5672C60.7463 96.9985 53.8766 95.0014 49.2363 92.23C48.5955 91.8456 47.7625 92.0565 47.3807 92.6973C46.9989 93.3381 47.2071 94.1684 47.8479 94.5529C54.2184 98.3575 63.5097 100.432 71.4768 100.432C76.83 100.432 81.5878 99.4976 84.458 97.5192C86.8609 95.8638 87.8835 93.5864 87.4189 90.9325C87.0024 88.5562 85.2937 86.7113 82.9415 85.0853Z" fill="#93C5FD"/>
</g>
<path d="M58.9519 53.6523C58.2097 53.5429 57.5235 54.0528 57.4167 54.7924C57.3953 54.9392 56.8934 58.4342 57.4487 62.9437C57.5315 63.6299 58.1136 64.1318 58.7891 64.1318C58.8424 64.1318 58.8985 64.1265 58.9546 64.1211C59.6942 64.0303 60.2228 63.3549 60.132 62.6126C59.6247 58.4849 60.0866 55.2169 60.092 55.1849C60.1988 54.448 59.6888 53.7591 58.9519 53.6523Z" fill="#93C5FD"/>
<path d="M32.3651 42.5854C29.0891 46.1551 28.4109 52.8059 27.8663 58.1484C27.8102 58.7037 27.7568 59.2431 27.698 59.7664C27.6927 59.8171 27.2201 64.6844 28.8595 66.5934C30.0583 67.9897 31.9993 67.923 33.5559 67.8669C34.0925 67.8509 34.6025 67.8322 35.0403 67.8669C36.952 68.0191 38.5059 68.1846 39.8756 68.3315C41.6618 68.5211 43.0742 68.6732 44.297 68.6732C45.9924 68.6706 47.322 68.3822 48.7718 67.5118C49.6235 67.0019 50.2055 65.8084 50.6514 63.4722C51.1 65.8084 51.682 67.0019 52.5337 67.5118C53.9835 68.3822 55.3131 68.6732 57.0085 68.6732C58.2314 68.6706 59.6437 68.5211 61.4299 68.3315C62.7996 68.1846 64.3535 68.0191 66.2652 67.8669C66.703 67.8322 67.2103 67.8509 67.7496 67.8669C69.3062 67.923 71.2473 67.9897 72.4461 66.5934C74.0854 64.6844 73.6101 59.8171 73.6048 59.7664C73.5487 59.2457 73.4953 58.7037 73.4366 58.1511C72.8946 52.8059 72.2164 46.1551 68.9404 42.5854C67.1222 40.6043 64.4683 39.539 61.0508 39.4188C61.0348 39.4162 61.0188 39.4162 61.0027 39.4162C60.2792 39.4162 59.6785 39.9929 59.6518 40.7218C59.6277 41.4693 60.2098 42.0968 60.9573 42.1208C63.6219 42.2143 65.6377 42.9859 66.9487 44.4143C69.6159 47.3245 70.2434 53.4787 70.748 58.4261C70.804 58.9841 70.8601 59.5314 70.9162 60.0574C71.1084 61.8222 70.8334 64.3186 70.3929 64.8312C70.0404 65.2397 68.8737 65.1997 67.8431 65.165C67.253 65.1436 66.6416 65.1222 66.0516 65.1703C64.1025 65.3252 62.4605 65.5014 61.1442 65.6402C57.1954 66.0621 55.6869 66.2222 53.9942 65.2317C53.7566 64.9247 53.2199 63.6751 52.7446 58.6397L52.7099 58.2605C52.6352 57.5183 51.9784 56.9763 51.2308 57.0484C51.0172 57.0697 50.8223 57.1445 50.6514 57.2513C50.4832 57.1445 50.2883 57.0697 50.0747 57.0484C49.3298 56.9763 48.6677 57.5183 48.5956 58.2605L48.5582 58.6397C48.0856 63.6751 47.5463 64.9247 47.3113 65.2317C45.6186 66.2222 44.1074 66.0594 40.1613 65.6402C38.8423 65.5014 37.203 65.3252 35.2539 65.1703C34.6639 65.1222 34.0525 65.1436 33.4624 65.165C32.4318 65.1997 31.2624 65.2397 30.9126 64.8312C30.4721 64.3186 30.1971 61.8222 30.3867 60.0574C30.4454 59.5314 30.5015 58.9841 30.5575 58.4234C31.0622 53.4787 31.6896 47.3218 34.3568 44.4143C35.6678 42.9859 37.6836 42.2143 40.3482 42.1208C41.0931 42.0968 41.6778 41.4693 41.6511 40.7218C41.6271 39.9769 41.005 39.3868 40.2547 39.4188C36.8372 39.539 34.1833 40.6043 32.3651 42.5854Z" fill="#93C5FD"/>
</svg>
