<svg width="32" height="20" viewBox="0 0 32 20" fill="none" xmlns="http://www.w3.org/2000/svg">
<path d="M14.3853 13.7355C15.7256 12.8433 16.7431 11.5434 17.2874 10.0281C17.8318 8.51281 17.874 6.86257 17.408 5.32141C16.9419 3.78025 15.9922 2.42999 14.6994 1.47031C13.4065 0.510637 11.8392 -0.007514 10.2291 -0.007514C8.61897 -0.007514 7.05162 0.510637 5.75878 1.47031C4.46594 2.42999 3.51627 3.78025 3.05018 5.32141C2.58409 6.86257 2.62635 8.51281 3.17069 10.0281C3.71503 11.5434 4.73256 12.8433 6.07282 13.7355C3.64843 14.6291 1.57795 16.2826 0.170316 18.4493C0.0963356 18.5592 0.0449488 18.6828 0.0191425 18.8128C-0.00666385 18.9428 -0.00637492 19.0766 0.0199925 19.2065C0.0463599 19.3364 0.0982797 19.4597 0.172734 19.5693C0.247189 19.679 0.342692 19.7727 0.453694 19.8451C0.564696 19.9175 0.688981 19.9671 0.819326 19.9911C0.949671 20.015 1.08348 20.0128 1.21296 19.9846C1.34245 19.9564 1.46503 19.9027 1.57359 19.8267C1.68215 19.7506 1.77451 19.6538 1.84532 19.5418C2.7533 18.1453 3.99576 16.9977 5.45986 16.2033C6.92396 15.4088 8.56332 14.9927 10.2291 14.9927C11.8948 14.9927 13.5342 15.4088 14.9983 16.2033C16.4624 16.9977 17.7048 18.1453 18.6128 19.5418C18.7595 19.7598 18.9861 19.9113 19.2435 19.9636C19.501 20.0158 19.7687 19.9647 19.9888 19.8211C20.2089 19.6776 20.3636 19.4532 20.4196 19.1965C20.4755 18.9398 20.4282 18.6714 20.2878 18.4493C18.8802 16.2826 16.8097 14.6291 14.3853 13.7355ZM4.72907 7.49553C4.72907 6.40773 5.05164 5.34436 5.65598 4.43989C6.26033 3.53542 7.11931 2.83047 8.12431 2.41419C9.1293 1.99791 10.2352 1.88899 11.3021 2.10121C12.369 2.31343 13.349 2.83725 14.1182 3.60644C14.8873 4.37563 15.4112 5.35564 15.6234 6.42253C15.8356 7.48943 15.7267 8.5953 15.3104 9.60029C14.8941 10.6053 14.1892 11.4643 13.2847 12.0686C12.3802 12.673 11.3169 12.9955 10.2291 12.9955C8.77088 12.9939 7.3729 12.4139 6.34181 11.3828C5.31071 10.3517 4.73072 8.95371 4.72907 7.49553ZM30.9966 19.833C30.7744 19.9779 30.5039 20.0286 30.2444 19.9739C29.9849 19.9193 29.7577 19.7639 29.6128 19.5418C28.7059 18.1444 27.4636 16.9964 25.9992 16.2023C24.5348 15.4082 22.8949 14.9933 21.2291 14.9955C20.9639 14.9955 20.7095 14.8902 20.522 14.7026C20.3344 14.5151 20.2291 14.2607 20.2291 13.9955C20.2291 13.7303 20.3344 13.476 20.522 13.2884C20.7095 13.1009 20.9639 12.9955 21.2291 12.9955C22.039 12.9948 22.8388 12.8151 23.5713 12.4694C24.3038 12.1237 24.9509 11.6205 25.4663 10.9957C25.9818 10.371 26.3529 9.64007 26.5532 8.85525C26.7534 8.07043 26.7778 7.25107 26.6247 6.45572C26.4716 5.66036 26.1447 4.90864 25.6673 4.25427C25.19 3.59991 24.574 3.05904 23.8635 2.67032C23.1529 2.2816 22.3652 2.05463 21.5567 2.00561C20.7482 1.9566 19.9389 2.08675 19.1866 2.38678C19.0639 2.43981 18.9318 2.46771 18.7982 2.46884C18.6646 2.46997 18.5321 2.4443 18.4085 2.39335C18.285 2.34241 18.1729 2.26721 18.0789 2.17222C17.9849 2.07722 17.9109 1.96435 17.8613 1.84027C17.8117 1.71619 17.7874 1.58342 17.7899 1.4498C17.7925 1.31619 17.8218 1.18444 17.8761 1.06234C17.9305 0.940247 18.0087 0.830278 18.1063 0.738935C18.2038 0.647592 18.3187 0.576727 18.4441 0.530529C20.1659 -0.156157 22.081 -0.180868 23.82 0.461163C25.559 1.10319 26.9986 2.36647 27.8611 4.0073C28.7236 5.64813 28.9479 7.55023 28.4907 9.34668C28.0335 11.1431 26.9272 12.7066 25.3853 13.7355C27.8097 14.6291 29.8802 16.2826 31.2878 18.4493C31.4327 18.6714 31.4834 18.942 31.4287 19.2015C31.3741 19.461 31.2187 19.6881 30.9966 19.833Z" fill="#93C5FD"/>
</svg>
