<svg width="60" height="60" viewBox="0 0 60 60" fill="none" xmlns="http://www.w3.org/2000/svg">
<path d="M38.8266 47.4234C39.0008 47.5976 39.139 47.8044 39.2332 48.032C39.3275 48.2596 39.3761 48.5036 39.3761 48.7499C39.3761 48.9963 39.3275 49.2403 39.2332 49.4679C39.139 49.6955 39.0008 49.9023 38.8266 50.0765C38.6524 50.2507 38.4456 50.3889 38.2179 50.4832C37.9903 50.5775 37.7464 50.626 37.5 50.626C37.2536 50.626 37.0097 50.5775 36.7821 50.4832C36.5545 50.3889 36.3477 50.2507 36.1734 50.0765L17.4234 31.3265C17.2491 31.1524 17.1108 30.9456 17.0165 30.718C16.9221 30.4903 16.8735 30.2463 16.8735 29.9999C16.8735 29.7535 16.9221 29.5096 17.0165 29.2819C17.1108 29.0543 17.2491 28.8475 17.4234 28.6734L36.1734 9.92338C36.5253 9.57156 37.0025 9.3739 37.5 9.3739C37.9976 9.3739 38.4747 9.57156 38.8266 9.92338C39.1784 10.2752 39.3761 10.7524 39.3761 11.2499C39.3761 11.7475 39.1784 12.2247 38.8266 12.5765L21.4008 29.9999L38.8266 47.4234Z" fill="#93C5FD"/>
</svg>
