<svg width="25" height="26" viewBox="0 0 25 26" fill="none" xmlns="http://www.w3.org/2000/svg">
<path d="M0.384628 12.8095C0.485649 12.8853 0.600603 12.9404 0.722927 12.9717C0.845252 13.0031 0.972551 13.01 1.09756 12.9921C1.22256 12.9743 1.34283 12.932 1.45148 12.8677C1.56014 12.8033 1.65506 12.7183 1.73083 12.6173C2.31302 11.8411 3.06794 11.2112 3.93582 10.7773C4.80369 10.3435 5.76068 10.1176 6.73099 10.1176C7.70131 10.1176 8.6583 10.3435 9.52617 10.7773C10.394 11.2112 11.149 11.8411 11.7312 12.6173C11.8844 12.821 12.1122 12.9557 12.3647 12.9915C12.6171 13.0273 12.8735 12.9614 13.0774 12.8083C13.15 12.7543 13.2144 12.6899 13.2685 12.6173C13.8507 11.8411 14.6056 11.2112 15.4735 10.7773C16.3413 10.3435 17.2983 10.1176 18.2686 10.1176C19.239 10.1176 20.1959 10.3435 21.0638 10.7773C21.9317 11.2112 22.6866 11.8411 23.2688 12.6173C23.422 12.8212 23.6499 12.956 23.9025 12.992C24.1551 13.0279 24.4116 12.9621 24.6156 12.8089C24.8196 12.6558 24.9544 12.4279 24.9904 12.1753C25.0264 11.9228 24.9605 11.6664 24.8073 11.4624C23.9562 10.3215 22.8212 9.42328 21.5151 8.85698C22.2311 8.2034 22.7328 7.34865 22.9542 6.40493C23.1757 5.4612 23.1066 4.47259 22.756 3.56883C22.4054 2.66507 21.7898 1.88839 20.9898 1.34073C20.1898 0.793063 19.243 0.5 18.2734 0.5C17.3039 0.5 16.3571 0.793063 15.5571 1.34073C14.7571 1.88839 14.1415 2.66507 13.7909 3.56883C13.4403 4.47259 13.3712 5.4612 13.5927 6.40493C13.8141 7.34865 14.3158 8.2034 15.0318 8.85698C14.0887 9.26467 13.2321 9.84832 12.5076 10.5767C11.7832 9.84832 10.9265 9.26467 9.98351 8.85698C10.6995 8.2034 11.2011 7.34865 11.4226 6.40493C11.644 5.4612 11.5749 4.47259 11.2244 3.56883C10.8738 2.66507 10.2581 1.88839 9.45816 1.34073C8.65821 0.793063 7.71133 0.5 6.74181 0.5C5.77229 0.5 4.82542 0.793063 4.02546 1.34073C3.22551 1.88839 2.60985 2.66507 2.25927 3.56883C1.9087 4.47259 1.8396 5.4612 2.06105 6.40493C2.28249 7.34865 2.78412 8.2034 3.50012 8.85698C2.18836 9.42143 1.04775 10.3202 0.192314 11.4636C0.116549 11.5646 0.0614231 11.6795 0.030084 11.8018C-0.00125516 11.9241 -0.00819369 12.0514 0.00966433 12.1764C0.0275223 12.3014 0.0698274 12.4216 0.134164 12.5302C0.1985 12.6389 0.283608 12.7338 0.384628 12.8095ZM18.2698 2.42642C18.8404 2.42642 19.3981 2.59557 19.8725 2.91249C20.3469 3.22941 20.7166 3.67986 20.935 4.20688C21.1533 4.7339 21.2104 5.31382 21.0991 5.8733C20.9878 6.43278 20.7131 6.94669 20.3096 7.35005C19.9062 7.75342 19.3922 8.02811 18.8326 8.1394C18.273 8.25068 17.693 8.19357 17.1659 7.97527C16.6388 7.75697 16.1883 7.3873 15.8713 6.91299C15.5543 6.43869 15.3851 5.88106 15.3851 5.31062C15.3851 4.54568 15.6891 3.81207 16.23 3.27118C16.771 2.73029 17.5048 2.42642 18.2698 2.42642ZM6.73099 2.42642C7.30154 2.42642 7.85927 2.59557 8.33366 2.91249C8.80804 3.22941 9.17778 3.67986 9.39612 4.20688C9.61446 4.7339 9.67159 5.31382 9.56028 5.8733C9.44897 6.43278 9.17423 6.94669 8.77079 7.35005C8.36736 7.75342 7.85335 8.02811 7.29377 8.1394C6.73419 8.25068 6.15418 8.19357 5.62706 7.97527C5.09995 7.75697 4.64942 7.3873 4.33244 6.91299C4.01547 6.43869 3.84628 5.88106 3.84628 5.31062C3.84628 4.54568 4.15021 3.81207 4.6912 3.27118C5.23218 2.73029 5.96592 2.42642 6.73099 2.42642ZM21.5151 21.3552C22.2311 20.7016 22.7328 19.8468 22.9542 18.9031C23.1757 17.9594 23.1066 16.9708 22.756 16.067C22.4054 15.1633 21.7898 14.3866 20.9898 13.8389C20.1898 13.2913 19.243 12.9982 18.2734 12.9982C17.3039 12.9982 16.3571 13.2913 15.5571 13.8389C14.7571 14.3866 14.1415 15.1633 13.7909 16.067C13.4403 16.9708 13.3712 17.9594 13.5927 18.9031C13.8141 19.8468 14.3158 20.7016 15.0318 21.3552C14.0887 21.7629 13.2321 22.3465 12.5076 23.0749C11.7832 22.3465 10.9265 21.7629 9.98351 21.3552C10.6995 20.7016 11.2011 19.8468 11.4226 18.9031C11.644 17.9594 11.5749 16.9708 11.2244 16.067C10.8738 15.1633 10.2581 14.3866 9.45816 13.8389C8.65821 13.2913 7.71133 12.9982 6.74181 12.9982C5.77229 12.9982 4.82542 13.2913 4.02546 13.8389C3.22551 14.3866 2.60985 15.1633 2.25927 16.067C1.9087 16.9708 1.8396 17.9594 2.06105 18.9031C2.28249 19.8468 2.78412 20.7016 3.50012 21.3552C2.18836 21.9196 1.04775 22.8184 0.192314 23.9618C0.116549 24.0628 0.0614231 24.1777 0.030084 24.3C-0.00125516 24.4223 -0.00819369 24.5496 0.00966433 24.6746C0.0275223 24.7995 0.0698274 24.9198 0.134164 25.0284C0.1985 25.1371 0.283608 25.232 0.384628 25.3077C0.485649 25.3835 0.600603 25.4386 0.722927 25.4699C0.845252 25.5013 0.972551 25.5082 1.09756 25.4903C1.22256 25.4725 1.34283 25.4302 1.45148 25.3659C1.56014 25.3015 1.65506 25.2164 1.73083 25.1154C2.31302 24.3393 3.06794 23.7094 3.93582 23.2755C4.80369 22.8417 5.76068 22.6158 6.73099 22.6158C7.70131 22.6158 8.6583 22.8417 9.52617 23.2755C10.394 23.7094 11.149 24.3393 11.7312 25.1154C11.8844 25.3192 12.1122 25.4539 12.3647 25.4897C12.6171 25.5255 12.8735 25.4596 13.0774 25.3065C13.15 25.2525 13.2144 25.1881 13.2685 25.1154C13.8507 24.3393 14.6056 23.7094 15.4735 23.2755C16.3413 22.8417 17.2983 22.6158 18.2686 22.6158C19.239 22.6158 20.1959 22.8417 21.0638 23.2755C21.9317 23.7094 22.6866 24.3393 23.2688 25.1154C23.422 25.3194 23.6499 25.4542 23.9025 25.4902C24.1551 25.5261 24.4116 25.4603 24.6156 25.3071C24.8196 25.154 24.9544 24.9261 24.9904 24.6735C25.0264 24.421 24.9605 24.1645 24.8073 23.9606C23.9562 22.8197 22.8212 21.9215 21.5151 21.3552ZM6.73099 14.9246C7.30154 14.9246 7.85927 15.0938 8.33366 15.4107C8.80804 15.7276 9.17778 16.1781 9.39612 16.7051C9.61446 17.2321 9.67159 17.812 9.56028 18.3715C9.44897 18.931 9.17423 19.4449 8.77079 19.8482C8.36736 20.2516 7.85335 20.5263 7.29377 20.6376C6.73419 20.7489 6.15418 20.6918 5.62706 20.4735C5.09995 20.2552 4.64942 19.8855 4.33244 19.4112C4.01547 18.9369 3.84628 18.3792 3.84628 17.8088C3.84628 17.0439 4.15021 16.3103 4.6912 15.7694C5.23218 15.2285 5.96592 14.9246 6.73099 14.9246ZM18.2698 14.9246C18.8404 14.9246 19.3981 15.0938 19.8725 15.4107C20.3469 15.7276 20.7166 16.1781 20.935 16.7051C21.1533 17.2321 21.2104 17.812 21.0991 18.3715C20.9878 18.931 20.7131 19.4449 20.3096 19.8482C19.9062 20.2516 19.3922 20.5263 18.8326 20.6376C18.273 20.7489 17.693 20.6918 17.1659 20.4735C16.6388 20.2552 16.1883 19.8855 15.8713 19.4112C15.5543 18.9369 15.3851 18.3792 15.3851 17.8088C15.3851 17.0439 15.6891 16.3103 16.23 15.7694C16.771 15.2285 17.5048 14.9246 18.2698 14.9246Z" fill="#93C5FD"/>
</svg>
