<svg width="126" height="80" viewBox="0 0 126 80" fill="none" xmlns="http://www.w3.org/2000/svg">
<mask id="mask0_193_21679" style="mask-type:luminance" maskUnits="userSpaceOnUse" x="40" y="0" width="46" height="81">
<path d="M40.6918 0H85.261V80.0001H40.6918V0Z" fill="white"/>
</mask>
<g mask="url(#mask0_193_21679)">
<path d="M62.9177 79.8204C62.706 79.8204 62.5217 79.7561 62.3578 79.624C61.4737 78.899 40.7184 61.67 40.7184 39.9864C40.7252 31.8766 43.6234 23.4654 49.4165 14.9152C49.5496 14.7187 49.7305 14.5968 49.9661 14.5527C50.1982 14.5087 50.4133 14.5494 50.6113 14.6815C50.8093 14.8136 50.9288 14.9965 50.9765 15.2269C51.0209 15.4606 50.98 15.674 50.8468 15.8705C45.2586 24.109 42.4662 32.2188 42.4662 39.9864C42.4662 58.9464 59.6166 74.9424 62.9313 77.8286C66.246 74.9153 83.393 58.9295 83.393 39.9864C83.393 21.0467 66.2221 5.06086 62.9108 2.15435C60.6134 4.19026 58.456 6.36167 56.4385 8.66859C56.3702 8.77021 56.2814 8.85829 56.179 8.92604C56.0732 8.99379 55.9571 9.03444 55.8342 9.05138C55.7113 9.0717 55.5884 9.06154 55.469 9.02767C55.3461 8.99379 55.2403 8.9362 55.1447 8.8549C55.0491 8.7736 54.9774 8.67536 54.9228 8.56357C54.8716 8.45178 54.8443 8.33322 54.8443 8.20788C54.8408 8.08254 54.8682 7.96398 54.9194 7.85219C54.9706 7.73701 55.0423 7.63877 55.1344 7.55747C57.3636 4.97956 59.7736 2.57779 62.3646 0.355566C62.5251 0.220064 62.7094 0.152313 62.9211 0.152313C63.1327 0.152313 63.3205 0.220064 63.4809 0.355566C64.3617 1.07711 85.1203 18.3095 85.1203 39.9864C85.1203 61.6666 64.3617 78.899 63.4809 79.624C63.3171 79.7561 63.1259 79.8204 62.9177 79.8204Z" fill="#93C5FD"/>
</g>
<mask id="mask1_193_21679" style="mask-type:luminance" maskUnits="userSpaceOnUse" x="0" y="34" width="48" height="47">
<path d="M0.000488281 34.9934H47.683V80.0003H0.000488281V34.9934Z" fill="white"/>
</mask>
<g mask="url(#mask1_193_21679)">
<path d="M42.4497 79.7935C34.5982 79.7935 27.7879 78.1675 22.1587 74.9358C4.56451 64.8511 0.246182 40.2101 0.058428 39.1667C0.0242915 38.9635 0.0618412 38.7738 0.164253 38.5943C0.270077 38.4181 0.42028 38.2928 0.614861 38.225C5.18239 36.6566 9.86256 35.5793 14.6588 35.0001C14.8944 34.9696 15.106 35.0272 15.2938 35.1728C15.4815 35.3151 15.5907 35.5048 15.6215 35.7419C15.6522 35.9757 15.5942 36.1857 15.4474 36.372C15.304 36.5583 15.1128 36.6667 14.8739 36.6972C10.46 37.2528 6.14164 38.2182 1.91207 39.5936C2.76208 43.7162 7.75973 64.702 23.0258 73.4385C29.3479 77.0631 37.2916 78.5672 46.6247 77.91C46.8602 77.8931 47.0684 77.9642 47.2494 78.1201C47.4303 78.2725 47.5293 78.469 47.5464 78.7061C47.5634 78.9398 47.4917 79.1465 47.3381 79.326C47.1811 79.5056 46.9831 79.6038 46.7476 79.6207C45.3002 79.7427 43.8493 79.7935 42.4497 79.7935Z" fill="#93C5FD"/>
</g>
<mask id="mask2_193_21679" style="mask-type:luminance" maskUnits="userSpaceOnUse" x="78" y="34" width="48" height="47">
<path d="M78.2699 34.9934H125.843V80.0003H78.2699V34.9934Z" fill="white"/>
</mask>
<g mask="url(#mask2_193_21679)">
<path d="M83.3767 79.7937C81.9805 79.7937 80.5501 79.7395 79.0822 79.6379C78.9662 79.6278 78.8604 79.6007 78.7579 79.5498C78.6555 79.499 78.5668 79.4313 78.4917 79.3432C78.4166 79.2585 78.3585 79.1603 78.3244 79.0519C78.2869 78.9469 78.2732 78.8351 78.2834 78.7233C78.2903 78.6081 78.3176 78.4997 78.3688 78.3981C78.42 78.2965 78.4883 78.2084 78.577 78.1339C78.6624 78.0593 78.7614 78.0017 78.8706 77.9679C78.9798 77.9306 79.0891 77.9204 79.2051 77.9272C88.5382 78.5878 96.4819 77.0837 102.804 73.4557C118.07 64.7023 123.068 43.7165 123.918 39.6108C119.688 38.2354 115.366 37.27 110.953 36.7144C110.717 36.6839 110.526 36.5755 110.379 36.3892C110.236 36.2029 110.178 35.9929 110.205 35.7591C110.236 35.522 110.345 35.3323 110.533 35.19C110.724 35.0444 110.935 34.9868 111.171 35.0173C115.967 35.5965 120.647 36.6704 125.212 38.2422C125.406 38.3099 125.556 38.4353 125.662 38.6114C125.768 38.791 125.802 38.9807 125.771 39.1839C125.594 40.2273 121.276 64.8682 103.681 74.953C98.0385 78.1677 91.2316 79.7937 83.3767 79.7937Z" fill="#93C5FD"/>
</g>
<mask id="mask3_193_21679" style="mask-type:luminance" maskUnits="userSpaceOnUse" x="21" y="15" width="44" height="66">
<path d="M21.4656 15.0476H64.287V80.0003H21.4656V15.0476Z" fill="white"/>
</mask>
<g mask="url(#mask3_193_21679)">
<path d="M62.8399 79.8207H62.6931C61.6451 79.6412 36.8378 75.3525 26.682 57.8762C21.0084 48.093 21.2815 36.3111 22.5514 28.1438C23.1659 23.9805 24.1661 19.9121 25.5555 15.9351C25.6272 15.742 25.7535 15.593 25.931 15.4879C26.1119 15.3829 26.3031 15.3457 26.5113 15.3795C31.8503 16.406 36.9948 18.032 41.9481 20.2644C42.1665 20.3626 42.3167 20.5218 42.4021 20.7454C42.484 20.9656 42.4772 21.1858 42.3782 21.4026C42.2826 21.6126 42.1256 21.7583 41.9071 21.843C41.692 21.9243 41.477 21.9209 41.2619 21.8294C36.6602 19.7732 31.8947 18.2319 26.9585 17.202C25.7432 20.8606 24.842 24.5936 24.2583 28.4046C23.0532 36.2976 22.7528 47.6662 28.1704 57.0056C37.9233 73.7875 62.717 78.0897 62.9662 78.1168C63.1847 78.1574 63.3588 78.2658 63.4919 78.442C63.6216 78.6147 63.6797 78.8112 63.6626 79.0314C63.6455 79.2482 63.5568 79.4311 63.3963 79.5836C63.2359 79.7326 63.0481 79.8139 62.8262 79.8207H62.8399Z" fill="#93C5FD"/>
</g>
<mask id="mask4_193_21679" style="mask-type:luminance" maskUnits="userSpaceOnUse" x="61" y="15" width="44" height="66">
<path d="M61.6656 15.0476H104.487V80.0003H61.6656V15.0476Z" fill="white"/>
</mask>
<g mask="url(#mask4_193_21679)">
<path d="M62.9115 79.8209C62.6896 79.8141 62.5019 79.7328 62.3414 79.5838C62.181 79.4313 62.0922 79.2484 62.0752 79.0316C62.0581 78.8114 62.1161 78.6149 62.2493 78.4422C62.3824 78.266 62.5565 78.1576 62.7716 78.117C63.0242 78.0729 87.8213 73.7741 97.5708 57.0329C106.388 41.8567 100.155 21.2131 98.81 17.2293C93.8772 18.2591 89.1082 19.8039 84.51 21.8567C84.2983 21.9346 84.0867 21.9312 83.875 21.8432C83.6668 21.7551 83.5132 21.6094 83.421 21.4028C83.3254 21.1961 83.3186 20.9861 83.3903 20.7727C83.462 20.5593 83.6019 20.3967 83.7999 20.2917C88.7532 18.0559 93.9011 16.4265 99.2401 15.3967C99.4449 15.3628 99.6361 15.4001 99.817 15.5051C99.9945 15.6101 100.121 15.7591 100.189 15.9522C100.565 16.9448 109.222 40.4272 99.0728 57.9035C88.9239 75.3798 64.1132 79.6718 63.0617 79.848L62.9115 79.8209Z" fill="#93C5FD"/>
</g>
</svg>
