<svg width="25" height="30" viewBox="0 0 25 30" fill="none" xmlns="http://www.w3.org/2000/svg">
<path d="M21.2923 15L24.8712 8.71866C24.9559 8.57111 25.0004 8.40367 25 8.2333C24.9996 8.06292 24.9545 7.89568 24.8691 7.74851C24.7837 7.60135 24.6611 7.4795 24.5138 7.39531C24.3665 7.31112 24.1997 7.26758 24.0302 7.26911H16.9001L13.338 0.98777C13.254 0.839623 13.1325 0.716462 12.9858 0.630794C12.8392 0.545125 12.6726 0.5 12.503 0.5C12.3334 0.5 12.1668 0.545125 12.0202 0.630794C11.8735 0.716462 11.752 0.839623 11.668 0.98777L8.09154 7.26911H0.963746C0.794815 7.26865 0.628746 7.31297 0.482275 7.39759C0.335804 7.48222 0.214104 7.60417 0.129439 7.75115C0.044774 7.89814 0.000135303 8.06496 2.06888e-05 8.23482C-9.39256e-05 8.40467 0.0443196 8.57156 0.128786 8.71866L3.69929 15L0.128786 21.2813C0.0440561 21.4289 -0.000372875 21.5963 2.35723e-06 21.7667C0.000377589 21.9371 0.0455439 22.1043 0.130923 22.2515C0.216302 22.3986 0.338858 22.5205 0.48617 22.6047C0.633482 22.6889 0.800313 22.7324 0.969752 22.7309H8.09154L11.662 29.0122C11.746 29.1604 11.8675 29.2835 12.0142 29.3692C12.1608 29.4549 12.3274 29.5 12.497 29.5C12.6666 29.5 12.8332 29.4549 12.9798 29.3692C13.1265 29.2835 13.248 29.1604 13.332 29.0122L16.9001 22.7309H24.0302C24.1997 22.7324 24.3665 22.6889 24.5138 22.6047C24.6611 22.5205 24.7837 22.3986 24.8691 22.2515C24.9545 22.1043 24.9996 21.9371 25 21.7667C25.0004 21.5963 24.9559 21.4289 24.8712 21.2813L21.2923 15ZM22.3735 9.20184L20.1858 13.0528L17.9981 9.20184H22.3735ZM19.0794 15L15.7852 20.7982H9.20762L5.91343 15L9.20762 9.20184H15.7852L19.0794 15ZM12.497 3.41817L14.6859 7.26911H10.3069L12.497 3.41817ZM2.61925 9.20184H6.99347L4.80816 13.0528L2.61925 9.20184ZM2.61925 20.7885L4.80816 16.9472L6.99347 20.7982L2.61925 20.7885ZM12.497 26.5818L10.3069 22.7309H14.6859L12.497 26.5818ZM17.9981 20.7982L20.1858 16.9472L22.3735 20.7982H17.9981Z" fill="#93C5FD"/>
</svg>
