<svg width="40" height="40" viewBox="0 0 40 40" fill="none" xmlns="http://www.w3.org/2000/svg">
<path d="M31.4651 23.2385L25.3106 20.1615C25.0684 20.0408 24.7986 19.9862 24.5284 20.003C24.2583 20.0199 23.9974 20.1078 23.772 20.2577L20.9468 22.1423C19.6498 21.4294 18.5825 20.3622 17.8695 19.0654L19.7543 16.2404C19.9043 16.0151 19.9921 15.7542 20.009 15.4841C20.0259 15.2139 19.9712 14.9442 19.8505 14.7019L16.7733 8.54808C16.6457 8.29052 16.4486 8.07384 16.2042 7.92259C15.9598 7.77134 15.6779 7.69156 15.3905 7.69231C13.3501 7.69231 11.3934 8.50275 9.95065 9.94533C8.50793 11.3879 7.69741 13.3445 7.69741 15.3846C7.7025 19.8713 9.48727 24.1728 12.6602 27.3454C15.8331 30.518 20.135 32.3026 24.6221 32.3077C25.6324 32.3077 26.6328 32.1087 27.5661 31.7222C28.4995 31.3356 29.3476 30.769 30.0619 30.0547C30.7763 29.3404 31.3429 28.4924 31.7296 27.5591C32.1162 26.6258 32.3152 25.6256 32.3152 24.6154C32.3154 24.3296 32.2359 24.0494 32.0858 23.8061C31.9356 23.5629 31.7207 23.3664 31.4651 23.2385ZM24.6221 29.2308C20.9508 29.2267 17.431 27.7666 14.835 25.1708C12.2389 22.5751 10.7787 19.0556 10.7746 15.3846C10.7743 14.3175 11.1438 13.2833 11.8202 12.458C12.4966 11.6326 13.4382 11.0671 14.4846 10.8577L16.6925 15.2808L14.8135 18.0769C14.6731 18.2875 14.5868 18.5295 14.5623 18.7814C14.5378 19.0334 14.5759 19.2875 14.6731 19.5212C15.7739 22.1373 17.8553 24.2185 20.4717 25.3192C20.7061 25.4208 20.9622 25.4623 21.2167 25.4402C21.4712 25.418 21.7162 25.3328 21.9295 25.1923L24.7394 23.3192L29.1629 25.5269C28.9519 26.5745 28.3838 27.5163 27.5557 28.1918C26.7276 28.8672 25.6908 29.2345 24.6221 29.2308ZM20.0063 4.76299e-07C16.553 -0.000753002 13.1584 0.892477 10.1527 2.59275C7.14714 4.29302 4.63298 6.74241 2.85497 9.7025C1.07696 12.6626 0.0956853 16.0325 0.00665053 19.4843C-0.0823843 22.9361 0.723857 26.3522 2.3469 29.4L0.163997 35.9481C-0.0168196 36.4902 -0.0430602 37.072 0.0882159 37.6282C0.219492 38.1844 0.503097 38.6931 0.907243 39.0972C1.31139 39.5013 1.82011 39.7849 2.37638 39.9162C2.93265 40.0474 3.51448 40.0212 4.05668 39.8404L10.6054 37.6577C13.2879 39.0843 16.2602 39.8812 19.2967 39.9877C22.3331 40.0942 25.354 39.5077 28.1299 38.2726C30.9058 37.0374 33.3638 35.1862 35.3174 32.8594C37.2709 30.5326 38.6687 27.7913 39.4045 24.8437C40.1404 21.8961 40.195 18.8196 39.5642 15.8478C38.9334 12.8759 37.6338 10.0868 35.764 7.69215C33.8942 5.29749 31.5034 3.36023 28.7731 2.02741C26.0428 0.694593 23.0446 0.0012466 20.0063 4.76299e-07ZM20.0063 36.9231C17.031 36.9251 14.1078 36.1417 11.5324 34.6519C11.3438 34.5426 11.1342 34.4746 10.9173 34.4523C10.7005 34.4301 10.4814 34.4542 10.2746 34.5231L3.08158 36.9231L5.47989 29.7308C5.54902 29.5241 5.57346 29.3051 5.55158 29.0883C5.52969 28.8715 5.46199 28.6618 5.35296 28.4731C3.48734 25.2479 2.7383 21.4973 3.22204 17.803C3.70578 14.1087 5.39526 10.6773 8.02838 8.04114C10.6615 5.40494 14.0911 3.71129 17.7851 3.22293C21.4791 2.73457 25.2311 3.4788 28.4589 5.34016C31.6867 7.20153 34.21 10.076 35.6373 13.5176C37.0646 16.9592 37.3162 20.7756 36.3529 24.3748C35.3897 27.9739 33.2655 31.1546 30.3099 33.4235C27.3543 35.6923 23.7324 36.9225 20.0063 36.9231Z" fill="white"/>
</svg>
